<svg xmlns="http://www.w3.org/2000/svg" viewBox="0 0 800 800" width="100%" height="100%" fill="none">
  <!-- Subtle Origami Diamond Polygonal Facets Matching Corporate Letterhead -->
  <polygon points="0,0 350,0 200,220 0,150" fill="rgba(255,255,255,0.03)" stroke="rgba(212,175,55,0.18)" stroke-width="1" />
  <polygon points="350,0 600,0 480,180 200,220" fill="rgba(255,255,255,0.015)" stroke="rgba(212,175,55,0.14)" stroke-width="1" />
  <polygon points="600,0 800,0 800,250 650,210 480,180" fill="rgba(255,255,255,0.025)" stroke="rgba(212,175,55,0.16)" stroke-width="1" />
  <polygon points="800,250 800,550 620,420 650,210" fill="rgba(255,255,255,0.02)" stroke="rgba(212,175,55,0.15)" stroke-width="1" />
  <polygon points="800,550 800,800 500,800 620,620 620,420" fill="rgba(255,255,255,0.03)" stroke="rgba(212,175,55,0.18)" stroke-width="1" />
  <polygon points="480,180 650,210 620,420 380,320 200,220" fill="rgba(212,175,55,0.03)" stroke="rgba(212,175,55,0.22)" stroke-width="1" />
  <polygon points="200,220 380,320 280,520 0,400 0,150" fill="rgba(255,255,255,0.02)" stroke="rgba(212,175,55,0.15)" stroke-width="1" />
  <polygon points="0,400 280,520 180,720 0,800" fill="rgba(255,255,255,0.015)" stroke="rgba(212,175,55,0.12)" stroke-width="1" />
  <polygon points="280,520 380,320 620,420 480,680" fill="rgba(212,175,55,0.025)" stroke="rgba(212,175,55,0.18)" stroke-width="1" />
  <polygon points="180,720 280,520 480,680 500,800 0,800" fill="rgba(255,255,255,0.025)" stroke="rgba(212,175,55,0.15)" stroke-width="1" />
</svg>
